<mxfile host="Electron" modified="2024-10-12T02:34:47.579Z" agent="Mozilla/5.0 (X11; Linux x86_64) AppleWebKit/537.36 (KHTML, like Gecko) draw.io/24.4.0 Chrome/120.0.6099.109 Electron/28.1.0 Safari/537.36" etag="fOr0LInZiXt0ajjerVcn" version="24.4.0" type="device">
  <diagram name="Page-1" id="2SzE08WSmFyf63tS2O4Y">
    <mxGraphModel dx="1114" dy="819" grid="1" gridSize="10" guides="1" tooltips="1" connect="1" arrows="1" fold="1" page="1" pageScale="1" pageWidth="850" pageHeight="1100" math="0" shadow="0">
      <root>
        <mxCell id="0" />
        <mxCell id="1" parent="0" />
        <mxCell id="zm3ACBp-sfVuaDU9QqFq-1" value="&lt;h1 style=&quot;margin-top: 0px;&quot;&gt;Standard Graph&lt;/h1&gt;&lt;div&gt;The standard graph is a powerful feature within VASM. It can be activated by using the -std=stdg. Standard graphing analyzes features of every given vendor to try and find features that intersect with each other. This graph gives an example of how that feature set would be applicable to standardized software.&lt;/div&gt;" style="text;html=1;whiteSpace=wrap;overflow=hidden;rounded=0;" parent="1" vertex="1">
          <mxGeometry x="40" y="160" width="570" height="120" as="geometry" />
        </mxCell>
        <mxCell id="rCafQPVQ-FDPNlcMEUUq-3" style="edgeStyle=orthogonalEdgeStyle;rounded=0;orthogonalLoop=1;jettySize=auto;html=1;exitX=1;exitY=0.5;exitDx=0;exitDy=0;entryX=0;entryY=0.5;entryDx=0;entryDy=0;" edge="1" parent="1" source="rCafQPVQ-FDPNlcMEUUq-1" target="rCafQPVQ-FDPNlcMEUUq-2">
          <mxGeometry relative="1" as="geometry" />
        </mxCell>
        <mxCell id="rCafQPVQ-FDPNlcMEUUq-1" value="Standard Graph" style="rounded=0;whiteSpace=wrap;html=1;" vertex="1" parent="1">
          <mxGeometry x="80" y="320" width="160" height="60" as="geometry" />
        </mxCell>
        <mxCell id="rCafQPVQ-FDPNlcMEUUq-4" style="edgeStyle=orthogonalEdgeStyle;rounded=0;orthogonalLoop=1;jettySize=auto;html=1;exitX=1;exitY=0.5;exitDx=0;exitDy=0;" edge="1" parent="1" source="rCafQPVQ-FDPNlcMEUUq-2">
          <mxGeometry relative="1" as="geometry">
            <mxPoint x="460" y="350" as="targetPoint" />
          </mxGeometry>
        </mxCell>
        <mxCell id="rCafQPVQ-FDPNlcMEUUq-2" value="Iterate list of given vendors" style="rounded=0;whiteSpace=wrap;html=1;" vertex="1" parent="1">
          <mxGeometry x="280" y="320" width="120" height="60" as="geometry" />
        </mxCell>
        <mxCell id="rCafQPVQ-FDPNlcMEUUq-7" style="edgeStyle=orthogonalEdgeStyle;rounded=0;orthogonalLoop=1;jettySize=auto;html=1;exitX=1;exitY=0.5;exitDx=0;exitDy=0;" edge="1" parent="1" source="rCafQPVQ-FDPNlcMEUUq-5">
          <mxGeometry relative="1" as="geometry">
            <mxPoint x="660" y="350" as="targetPoint" />
          </mxGeometry>
        </mxCell>
        <mxCell id="rCafQPVQ-FDPNlcMEUUq-5" value="For each feature in this vendor" style="rounded=0;whiteSpace=wrap;html=1;" vertex="1" parent="1">
          <mxGeometry x="460" y="320" width="120" height="60" as="geometry" />
        </mxCell>
        <mxCell id="rCafQPVQ-FDPNlcMEUUq-11" style="edgeStyle=orthogonalEdgeStyle;rounded=0;orthogonalLoop=1;jettySize=auto;html=1;exitX=0.5;exitY=1;exitDx=0;exitDy=0;entryX=0.5;entryY=0;entryDx=0;entryDy=0;" edge="1" parent="1" source="rCafQPVQ-FDPNlcMEUUq-8" target="rCafQPVQ-FDPNlcMEUUq-9">
          <mxGeometry relative="1" as="geometry" />
        </mxCell>
        <mxCell id="rCafQPVQ-FDPNlcMEUUq-8" value="Iterate over every vendor once again" style="rounded=0;whiteSpace=wrap;html=1;" vertex="1" parent="1">
          <mxGeometry x="660" y="320" width="120" height="60" as="geometry" />
        </mxCell>
        <mxCell id="rCafQPVQ-FDPNlcMEUUq-14" style="edgeStyle=orthogonalEdgeStyle;rounded=0;orthogonalLoop=1;jettySize=auto;html=1;exitX=0;exitY=0.5;exitDx=0;exitDy=0;entryX=1;entryY=0.5;entryDx=0;entryDy=0;" edge="1" parent="1" source="rCafQPVQ-FDPNlcMEUUq-9" target="rCafQPVQ-FDPNlcMEUUq-12">
          <mxGeometry relative="1" as="geometry" />
        </mxCell>
        <mxCell id="rCafQPVQ-FDPNlcMEUUq-9" value="Check if vendor has same feature" style="rounded=0;whiteSpace=wrap;html=1;" vertex="1" parent="1">
          <mxGeometry x="660" y="420" width="120" height="60" as="geometry" />
        </mxCell>
        <mxCell id="rCafQPVQ-FDPNlcMEUUq-15" style="edgeStyle=orthogonalEdgeStyle;rounded=0;orthogonalLoop=1;jettySize=auto;html=1;exitX=0;exitY=0.5;exitDx=0;exitDy=0;entryX=0.5;entryY=1;entryDx=0;entryDy=0;" edge="1" parent="1" source="rCafQPVQ-FDPNlcMEUUq-12" target="rCafQPVQ-FDPNlcMEUUq-5">
          <mxGeometry relative="1" as="geometry" />
        </mxCell>
        <mxCell id="rCafQPVQ-FDPNlcMEUUq-12" value="add to standard graph. This instruction is supported by every vendor" style="rounded=0;whiteSpace=wrap;html=1;" vertex="1" parent="1">
          <mxGeometry x="370" y="420" width="210" height="60" as="geometry" />
        </mxCell>
      </root>
    </mxGraphModel>
  </diagram>
</mxfile>
